<svg xmlns="http://www.w3.org/2000/svg" xmlns:xlink="http://www.w3.org/1999/xlink" width="500" zoomAndPan="magnify" viewBox="0 0 375 374.999991" height="500" preserveAspectRatio="xMidYMid meet" version="1.0"><defs><g/><clipPath id="005ffd8586"><path d="M 128.628906 158.210938 L 246.378906 158.210938 L 246.378906 244 L 128.628906 244 Z M 128.628906 158.210938 " clip-rule="nonzero"/></clipPath><clipPath id="e956ca0446"><path d="M 138 101 L 237 101 L 237 154 L 138 154 Z M 138 101 " clip-rule="nonzero"/></clipPath><clipPath id="e27940de57"><path d="M 136.035156 105.847656 L 233.789062 95.980469 L 239.0625 148.214844 L 141.308594 158.082031 Z M 136.035156 105.847656 " clip-rule="nonzero"/></clipPath><clipPath id="4d87aff906"><path d="M 136.035156 105.847656 L 233.789062 95.980469 L 239.0625 148.214844 L 141.308594 158.082031 Z M 136.035156 105.847656 " clip-rule="nonzero"/></clipPath><clipPath id="9e21967a36"><path d="M 136.058594 105.847656 L 233.703125 95.988281 L 238.992188 148.363281 L 141.34375 158.222656 Z M 136.058594 105.847656 " clip-rule="nonzero"/></clipPath><clipPath id="194ef7fb80"><path d="M 136.058594 105.847656 L 233.652344 95.992188 L 238.9375 148.34375 L 141.34375 158.195312 Z M 136.058594 105.847656 " clip-rule="nonzero"/></clipPath><clipPath id="dc36c6625a"><path d="M 138 101 L 237 101 L 237 154 L 138 154 Z M 138 101 " clip-rule="nonzero"/></clipPath><clipPath id="1c16c5f624"><path d="M 136.035156 105.847656 L 233.789062 95.980469 L 239.0625 148.214844 L 141.308594 158.082031 Z M 136.035156 105.847656 " clip-rule="nonzero"/></clipPath><clipPath id="443c7305f4"><path d="M 136.035156 105.847656 L 233.789062 95.980469 L 239.0625 148.214844 L 141.308594 158.082031 Z M 136.035156 105.847656 " clip-rule="nonzero"/></clipPath><clipPath id="111755a3ff"><path d="M 136.058594 105.847656 L 233.703125 95.988281 L 238.992188 148.363281 L 141.34375 158.222656 Z M 136.058594 105.847656 " clip-rule="nonzero"/></clipPath><clipPath id="e82ddfa55f"><path d="M 136.058594 105.847656 L 233.652344 95.992188 L 238.9375 148.34375 L 141.34375 158.195312 Z M 136.058594 105.847656 " clip-rule="nonzero"/></clipPath><clipPath id="f761805ac8"><path d="M 135.992188 105.851562 L 233.703125 95.988281 L 238.992188 148.363281 L 141.28125 158.230469 Z M 135.992188 105.851562 " clip-rule="nonzero"/></clipPath><clipPath id="5e8592548f"><path d="M 176.699219 152.835938 C 192.230469 154.539062 208.234375 151.6875 222.226562 144.726562 C 225.886719 142.90625 229.464844 140.765625 232.238281 137.757812 C 235.011719 134.753906 236.921875 130.773438 236.734375 126.6875 C 236.382812 119.144531 229.394531 113.734375 222.636719 110.363281 C 207.164062 102.640625 189.308594 99.777344 172.199219 102.28125 C 159.347656 104.160156 146.261719 109.773438 140.398438 122.15625 C 134.644531 134.300781 143.082031 142.355469 153.792969 146.867188 C 161.089844 149.941406 168.828125 151.972656 176.699219 152.835938 Z M 176.699219 152.835938 " clip-rule="nonzero"/></clipPath><clipPath id="09d07b4c71"><path d="M 151 54 L 225 54 L 225 99 L 151 99 Z M 151 54 " clip-rule="nonzero"/></clipPath><clipPath id="d8a5db2c0e"><path d="M 217.175781 111.605469 L 146.003906 93.253906 L 157.988281 46.777344 L 229.160156 65.128906 Z M 217.175781 111.605469 " clip-rule="nonzero"/></clipPath><clipPath id="6237ca4531"><path d="M 217.175781 111.605469 L 146.003906 93.253906 L 157.988281 46.777344 L 229.160156 65.128906 Z M 217.175781 111.605469 " clip-rule="nonzero"/></clipPath></defs><g clip-path="url(#005ffd8586)"><path fill="#889259" d="M 246.367188 209.394531 C 246.351562 211.914062 246.003906 214.460938 245.28125 217.007812 C 244.734375 218.945312 243.96875 220.882812 242.96875 222.808594 C 242.652344 223.425781 242.308594 224.042969 241.941406 224.65625 C 241.136719 226.019531 240.207031 227.359375 239.167969 228.691406 C 238.125 230.023438 236.972656 231.335938 235.691406 232.636719 C 233.625 234.742188 231.261719 236.429688 228.710938 237.769531 C 222.234375 241.230469 214.5 242.597656 207.082031 243.277344 C 192.714844 244.570312 178.175781 243.90625 163.988281 241.34375 C 155.675781 239.835938 147.121094 237.496094 140.820312 231.859375 C 138.136719 229.46875 135.945312 226.996094 134.203125 224.488281 C 132.84375 222.546875 131.757812 220.570312 130.914062 218.582031 C 130.832031 218.367188 130.746094 218.167969 130.664062 217.957031 C 129.71875 215.59375 129.121094 213.207031 128.839844 210.824219 C 128.785156 210.386719 128.746094 209.953125 128.714844 209.515625 C 128.65625 208.902344 128.640625 208.308594 128.628906 207.695312 C 128.625 207.378906 128.625 207.058594 128.632812 206.738281 C 128.679688 204.238281 129.050781 201.761719 129.710938 199.3125 C 132.640625 188.15625 141.304688 177.746094 151.925781 170.246094 C 152.359375 169.9375 152.792969 169.636719 153.230469 169.34375 C 153.882812 168.902344 154.535156 168.476562 155.203125 168.066406 C 155.980469 167.578125 156.765625 167.101562 157.5625 166.644531 L 157.566406 166.644531 C 159.03125 165.800781 160.523438 165.011719 162.035156 164.289062 C 168.625 161.105469 175.480469 159.125 181.886719 158.738281 C 190.5 158.226562 200.722656 160.746094 210.472656 165.371094 C 211.753906 165.976562 213.019531 166.625 214.277344 167.304688 C 215.253906 167.828125 216.222656 168.378906 217.1875 168.949219 C 218.042969 169.457031 218.890625 169.976562 219.730469 170.515625 C 230.007812 177.105469 238.828125 185.933594 243.269531 195.734375 C 243.507812 196.257812 243.734375 196.78125 243.949219 197.304688 C 244.703125 199.175781 245.292969 201.070312 245.695312 202.988281 C 245.796875 203.453125 245.882812 203.917969 245.960938 204.382812 C 246.230469 206.035156 246.371094 207.710938 246.367188 209.394531 " fill-opacity="1" fill-rule="nonzero"/></g><g clip-path="url(#e956ca0446)"><g clip-path="url(#e27940de57)"><g clip-path="url(#4d87aff906)"><g clip-path="url(#9e21967a36)"><g clip-path="url(#194ef7fb80)"><path fill="#889259" d="M 176.699219 152.835938 C 192.230469 154.539062 208.234375 151.6875 222.226562 144.726562 C 225.886719 142.90625 229.464844 140.765625 232.238281 137.757812 C 235.011719 134.753906 236.921875 130.773438 236.734375 126.6875 C 236.382812 119.144531 229.394531 113.734375 222.636719 110.363281 C 207.164062 102.640625 189.308594 99.777344 172.199219 102.28125 C 159.347656 104.160156 146.261719 109.773438 140.398438 122.15625 C 134.644531 134.300781 143.082031 142.355469 153.792969 146.867188 C 161.089844 149.941406 168.828125 151.972656 176.699219 152.835938 " fill-opacity="1" fill-rule="nonzero"/></g></g></g></g></g><g clip-path="url(#dc36c6625a)"><g clip-path="url(#1c16c5f624)"><g clip-path="url(#443c7305f4)"><g clip-path="url(#111755a3ff)"><g clip-path="url(#e82ddfa55f)"><g clip-path="url(#f761805ac8)"><g clip-path="url(#5e8592548f)"><path fill="#c4cfb1" d="M 142.34375 123.992188 C 143.960938 130.003906 148.816406 134.753906 154.386719 137.539062 C 159.953125 140.324219 166.214844 141.386719 172.398438 142.105469 C 186.144531 143.695312 200.179688 143.730469 213.710938 140.824219 C 217.3125 140.050781 220.929688 139.046875 224.058594 137.109375 C 227.191406 135.167969 229.820312 132.171875 230.609375 128.570312 C 231.621094 123.960938 229.429688 119.097656 226.035156 115.816406 C 222.640625 112.539062 218.199219 110.589844 213.765625 108.96875 C 195.386719 102.25 175.359375 100.097656 155.972656 102.761719 C 164.871094 95.691406 176.644531 92.929688 187.996094 93.375 C 199.351562 93.824219 210.386719 97.25 220.933594 101.476562 C 227.664062 104.175781 234.410156 107.316406 239.570312 112.410156 C 244.730469 117.503906 248.09375 124.933594 246.652344 132.039062 C 245.503906 137.691406 241.480469 142.445312 236.664062 145.613281 C 231.84375 148.785156 226.257812 150.558594 220.691406 152.070312 C 202.84375 156.925781 184.367188 159.476562 165.871094 159.640625 C 159.707031 159.695312 153.191406 159.382812 148.007812 156.046875 C 143.902344 153.40625 141.113281 149.15625 138.882812 144.8125 C 135.457031 138.152344 133.015625 130.765625 133.417969 123.285156 C 133.785156 116.453125 136.828125 109.417969 142.480469 105.335938 C 143.878906 104.328125 147.71875 102.058594 147.902344 104.992188 C 148.03125 107.09375 144.917969 110.398438 143.96875 112.164062 C 142.019531 115.8125 141.253906 119.9375 142.34375 123.992188 " fill-opacity="1" fill-rule="nonzero"/></g></g></g></g></g></g></g><g clip-path="url(#09d07b4c71)"><g clip-path="url(#d8a5db2c0e)"><g clip-path="url(#6237ca4531)"><path fill="#c4cfb1" d="M 152.789062 66.507812 C 152.90625 66.1875 153.03125 65.878906 153.164062 65.574219 C 153.597656 64.578125 154.117188 63.664062 154.710938 62.824219 C 155.246094 62.066406 155.84375 61.367188 156.5 60.730469 C 168.007812 49.488281 196.585938 56.519531 208.886719 62.394531 C 217.039062 66.296875 226.277344 76.3125 223.726562 84.609375 C 223.726562 84.609375 223.726562 84.609375 223.726562 84.621094 C 223.648438 84.867188 223.5625 85.109375 223.464844 85.355469 C 223.203125 86.007812 222.863281 86.648438 222.441406 87.273438 C 221.996094 87.929688 221.457031 88.570312 220.824219 89.1875 C 220.054688 89.929688 219.152344 90.628906 218.078125 91.300781 C 217.96875 91.363281 217.867188 91.433594 217.75 91.496094 C 217.613281 91.578125 217.476562 91.660156 217.339844 91.742188 C 216.734375 92.097656 216.097656 92.4375 215.429688 92.765625 C 214.863281 93.042969 214.277344 93.3125 213.667969 93.566406 C 199.308594 99.765625 174.742188 100.660156 163.15625 93.148438 C 157.960938 89.785156 153.941406 84.417969 152.367188 78.503906 C 151.875 76.6875 151.621094 74.824219 151.636719 72.949219 C 151.640625 72.617188 151.652344 72.285156 151.671875 71.949219 C 151.714844 71.1875 151.800781 70.425781 151.9375 69.667969 C 151.957031 69.550781 151.984375 69.433594 152.007812 69.316406 C 152.203125 68.316406 152.464844 67.382812 152.789062 66.507812 " fill-opacity="1" fill-rule="nonzero"/></g></g></g><g fill="#889259" fill-opacity="1"><g transform="translate(56.909517, 292.40125)"><g><path d="M 6.554688 -8.855469 L 10.945312 -19.941406 L 15.300781 -8.855469 Z M 21.5 0 L 10.945312 -25.753906 L 0.355469 0 L 3.046875 0 L 5.632812 -6.554688 L 16.222656 -6.554688 L 18.808594 0 Z M 21.5 0 "/></g></g></g><g fill="#889259" fill-opacity="1"><g transform="translate(89.140612, 292.40125)"><g><path d="M 5.136719 0 L 5.136719 -24.085938 L 2.65625 -24.085938 L 2.65625 0 Z M 5.136719 0 "/></g></g></g><g fill="#889259" fill-opacity="1"><g transform="translate(107.312309, 292.40125)"><g><path d="M 20.085938 -7.96875 L 20.085938 -24.085938 L 17.605469 -24.085938 L 17.605469 -7.617188 C 17.605469 -6.625 17.429688 -5.808594 17.074219 -5.136719 C 16.046875 -3.152344 14.0625 -2.160156 11.121094 -2.160156 C 9.210938 -2.160156 7.6875 -2.585938 6.554688 -3.4375 C 5.242188 -4.390625 4.605469 -5.773438 4.605469 -7.617188 L 4.605469 -24.085938 L 2.125 -24.085938 L 2.125 -7.96875 C 2.125 -5.347656 2.976562 -3.292969 4.675781 -1.804688 C 6.269531 -0.390625 8.429688 0.320312 11.121094 0.320312 C 13.78125 0.320312 15.90625 -0.390625 17.535156 -1.804688 C 19.234375 -3.292969 20.085938 -5.347656 20.085938 -7.96875 Z M 15.480469 -29.257812 C 15.160156 -29.542969 14.769531 -29.71875 14.347656 -29.71875 C 13.886719 -29.71875 13.496094 -29.542969 13.210938 -29.257812 C 12.929688 -28.941406 12.789062 -28.550781 12.789062 -28.125 C 12.789062 -27.699219 12.929688 -27.3125 13.210938 -27.027344 C 13.496094 -26.707031 13.886719 -26.566406 14.347656 -26.566406 C 14.769531 -26.566406 15.160156 -26.707031 15.480469 -27.027344 C 15.761719 -27.3125 15.941406 -27.699219 15.941406 -28.125 C 15.941406 -28.550781 15.761719 -28.941406 15.480469 -29.257812 Z M 9.03125 -29.257812 C 8.714844 -29.542969 8.324219 -29.71875 7.898438 -29.71875 C 7.4375 -29.71875 7.050781 -29.542969 6.765625 -29.257812 C 6.480469 -28.941406 6.339844 -28.550781 6.339844 -28.125 C 6.339844 -27.699219 6.480469 -27.3125 6.765625 -27.027344 C 7.050781 -26.707031 7.4375 -26.566406 7.898438 -26.566406 C 8.324219 -26.566406 8.714844 -26.707031 9.03125 -27.027344 C 9.316406 -27.3125 9.492188 -27.699219 9.492188 -28.125 C 9.492188 -28.550781 9.316406 -28.941406 9.03125 -29.257812 Z M 9.03125 -29.257812 "/></g></g></g><g fill="#889259" fill-opacity="1"><g transform="translate(139.897545, 292.40125)"><g><path d="M 5.136719 -17.746094 L 18.667969 1.488281 L 18.667969 -24.085938 L 16.1875 -24.085938 L 16.1875 -6.375 L 2.65625 -25.609375 L 2.65625 0 L 5.136719 0 Z M 5.136719 -17.746094 "/></g></g></g><g fill="#889259" fill-opacity="1"><g transform="translate(171.597425, 292.40125)"><g><path d="M 24.867188 0 L 27.382812 0 L 21.785156 -25.679688 L 13.886719 -5.066406 L 5.988281 -25.679688 L 0.355469 0 L 2.90625 0 L 6.625 -17.144531 L 13.886719 1.417969 L 21.113281 -17.144531 Z M 24.867188 0 "/></g></g></g><g fill="#889259" fill-opacity="1"><g transform="translate(209.707255, 292.40125)"><g><path d="M 6.554688 -8.855469 L 10.945312 -19.941406 L 15.300781 -8.855469 Z M 21.5 0 L 10.945312 -25.753906 L 0.355469 0 L 3.046875 0 L 5.632812 -6.554688 L 16.222656 -6.554688 L 18.808594 0 Z M 21.5 0 "/></g></g></g><g fill="#889259" fill-opacity="1"><g transform="translate(241.938347, 292.40125)"><g><path d="M 5.136719 -2.480469 L 5.136719 -24.085938 L 2.65625 -24.085938 L 2.65625 0 L 13.742188 0 L 13.742188 -2.480469 Z M 5.136719 -2.480469 "/></g></g></g><g fill="#889259" fill-opacity="1"><g transform="translate(266.767893, 292.40125)"><g><path d="M 16.96875 0 L 16.96875 -2.300781 L 5.136719 -2.300781 L 5.136719 -10.875 L 16.613281 -10.875 L 16.613281 -13.210938 L 5.136719 -13.210938 L 5.136719 -21.785156 L 16.96875 -21.785156 L 16.96875 -24.085938 L 2.65625 -24.085938 L 2.65625 0 Z M 16.96875 0 "/></g></g></g><g fill="#889259" fill-opacity="1"><g transform="translate(296.767891, 292.40125)"><g><path d="M 5.136719 -17.746094 L 18.667969 1.488281 L 18.667969 -24.085938 L 16.1875 -24.085938 L 16.1875 -6.375 L 2.65625 -25.609375 L 2.65625 0 L 5.136719 0 Z M 5.136719 -17.746094 "/></g></g></g></svg>